<?xml version="1.0" encoding="UTF-8"?>
<svg version="1.1" xmlns="http://www.w3.org/2000/svg" width="512" height="512">
<path d="M0 0 C1.82758598 -0.01925285 1.82758598 -0.01925285 3.6920929 -0.03889465 C5.00566269 -0.04628159 6.31923248 -0.05366852 7.67260742 -0.0612793 C8.34422094 -0.06535482 9.01583447 -0.06943035 9.70779991 -0.07362938 C13.26255353 -0.09445013 16.81726901 -0.10876919 20.37207031 -0.11816406 C24.03049387 -0.12922222 27.68830817 -0.1636257 31.34651661 -0.20333576 C34.1716571 -0.22956276 36.99665363 -0.2378612 39.82190514 -0.24144554 C41.82209838 -0.24864253 43.82219295 -0.27505267 45.82221985 -0.30183411 C52.73080766 -0.28537315 57.43771896 -0.14971895 62.96557617 4.17700195 C66.64647255 8.89609987 67.42659124 12.53865043 67.59448242 18.4543457 C66.92579681 21.34921446 66.01645707 22.54562884 64.27416992 24.89575195 C62.69907162 27.29594192 61.93738531 28.55925736 62.06933594 31.45068359 C62.72334984 33.95535692 63.54358301 36.32073918 64.46557617 38.73950195 C65.06648463 40.52182712 65.66281807 42.30570109 66.25463867 44.09106445 C66.55144531 44.96021484 66.84825195 45.82936523 67.15405273 46.72485352 C70.25332667 56.08980761 71.23301857 65.30200531 71.34057617 75.11450195 C71.35459473 75.99098389 71.36861328 76.86746582 71.38305664 77.77050781 C71.32105527 86.10174376 69.25644739 92.58056561 63.49291992 98.7668457 C58.64115198 103.24635524 54.82738372 102.17700195 47.96557617 102.17700195 C48.95557617 111.58200195 48.95557617 111.58200195 49.96557617 121.17700195 C55.55574381 123.27848885 55.55574381 123.27848885 61.16870117 125.31762695 C87.33072701 134.84328764 105.43526362 153.74339414 118.34057617 177.92700195 C118.75766846 178.70688477 119.17476074 179.48676758 119.60449219 180.2902832 C125.96557617 192.55836604 125.96557617 192.55836604 125.96557617 199.17700195 C137.12776588 192.60082817 146.17218147 183.25893857 154.96557617 173.86450195 C155.75689941 173.02145508 155.75689941 173.02145508 156.56420898 172.16137695 C159.17847457 169.31796589 161.49449816 166.46548807 163.65307617 163.2590332 C164.41620117 162.24196289 165.17932617 161.22489258 165.96557617 160.17700195 C166.95557617 160.17700195 167.94557617 160.17700195 168.96557617 160.17700195 C169.06354492 159.58274414 169.16151367 158.98848633 169.26245117 158.3762207 C172.23312835 141.90944977 172.23312835 141.90944977 175.96557617 138.17700195 C176.07112543 136.72479727 176.10795554 135.26753033 176.11706543 133.81152344 C176.12540909 132.86920868 176.13375275 131.92689392 176.14234924 130.95602417 C176.14862587 129.39284958 176.14862587 129.39284958 176.1550293 127.7980957 C176.1633226 126.70715607 176.17161591 125.61621643 176.18016052 124.49221802 C176.19760526 122.11479165 176.21275982 119.73734765 176.22593689 117.3598938 C176.24688396 113.60414017 176.27391242 109.84847528 176.3026123 106.09277344 C176.36243061 98.1208832 176.41458766 90.1489521 176.46557617 82.17700195 C176.52463204 72.94373653 176.58689835 63.71051222 176.65745544 54.47732544 C176.68414164 50.76517117 176.70488899 47.05301278 176.72546387 43.34082031 C176.742059 41.07918079 176.75893014 38.81754326 176.77612305 36.5559082 C176.78239967 34.99273361 176.78239967 34.99273361 176.7888031 33.39797974 C176.79714676 32.45566498 176.80549042 31.51335022 176.81408691 30.54248047 C176.81924065 29.71877457 176.82439438 28.89506866 176.82970428 28.04640198 C176.96557617 26.17700195 176.96557617 26.17700195 177.96557617 25.17700195 C179.53213076 25.07892171 181.1031077 25.05068318 182.67272949 25.05001831 C183.69077164 25.04719849 184.70881378 25.04437866 185.75770569 25.04147339 C187.44711525 25.04450974 187.44711525 25.04450974 189.1706543 25.04760742 C190.34937607 25.0458551 191.52809784 25.04410278 192.74253845 25.04229736 C195.98419225 25.03863928 199.2258055 25.03951222 202.46745872 25.04267645 C205.8529405 25.04520051 209.23841949 25.04286238 212.62390137 25.04129028 C218.31022633 25.03946872 223.99653833 25.04187454 229.68286133 25.04663086 C236.26585635 25.05207346 242.8488204 25.05031079 249.43181467 25.04480445 C255.0742693 25.04027294 260.71671458 25.03962296 266.35917044 25.04224312 C269.7333537 25.04380569 273.10752238 25.04400023 276.48170471 25.04070663 C280.24132413 25.03818183 284.00088315 25.04201828 287.76049805 25.04760742 C288.88677109 25.04558319 290.01304413 25.04355896 291.17344666 25.04147339 C292.70050987 25.04570313 292.70050987 25.04570313 294.25842285 25.05001831 C295.14849785 25.05039534 296.03857285 25.05077236 296.95561981 25.05116081 C298.96557617 25.17700195 298.96557617 25.17700195 299.96557617 26.17700195 C300.06368752 27.75622924 300.09189509 29.33984729 300.09255981 30.92211914 C300.09537964 31.94857544 300.09819946 32.97503174 300.10110474 34.03259277 C300.09806839 35.73602844 300.09806839 35.73602844 300.0949707 37.47387695 C300.09759918 39.25658997 300.09759918 39.25658997 300.10028076 41.07531738 C300.10393888 44.34382971 300.10306589 47.61230184 300.09990168 50.8808136 C300.09737764 54.29432259 300.09971573 57.7078288 300.10128784 61.12133789 C300.10310941 66.85474127 300.10070356 72.58813178 300.09594727 78.3215332 C300.09050467 84.95905971 300.09226733 91.59655551 300.09777367 98.23408127 C300.10230517 103.92324462 300.10295517 109.61239869 300.100335 115.30156326 C300.09877243 118.70369216 300.09857793 122.10580659 300.10187149 125.50793457 C300.10439627 129.29868683 300.10055988 133.08937918 300.0949707 136.88012695 C300.09699493 138.01575073 300.09901917 139.15137451 300.10110474 140.32141113 C300.096875 141.86109558 300.096875 141.86109558 300.09255981 143.43188477 C300.09218279 144.32933411 300.09180576 145.22678345 300.09141731 146.15142822 C299.96557617 148.17700195 299.96557617 148.17700195 298.96557617 149.17700195 C295.98334443 149.30233283 293.02315983 149.36311773 290.03955078 149.38232422 C289.10306198 149.39222382 288.16657318 149.40212341 287.20170593 149.412323 C284.09047009 149.44403948 280.97921895 149.46873536 277.86791992 149.4934082 C275.71700126 149.51396898 273.56608671 149.53496521 271.41517639 149.55638123 C265.74180428 149.61169245 260.06839516 149.66106168 254.3949585 149.70922852 C248.61052134 149.75937763 242.82613821 149.81509801 237.04174805 149.87036133 C225.68307019 149.97805354 214.32434552 150.07947377 202.96557617 150.17700195 C203.29557617 150.83700195 203.62557617 151.49700195 203.96557617 152.17700195 C204.54676368 156.94083396 204.41645703 160.32188309 202.15307617 164.61450195 C199.96557617 167.17700195 199.96557617 167.17700195 196.96557617 169.17700195 C196.11901051 170.95293686 196.11901051 170.95293686 195.61401367 173.02075195 C195.40260742 173.77227539 195.19120117 174.52379883 194.97338867 175.2980957 C194.76456055 176.08313477 194.55573242 176.86817383 194.34057617 177.67700195 C192.03288386 186.04238657 192.03288386 186.04238657 190.96557617 188.17700195 C226.93557617 188.50700195 262.90557617 188.83700195 299.96557617 189.17700195 C299.96557617 229.76700195 299.96557617 270.35700195 299.96557617 312.17700195 C259.37557617 312.17700195 218.78557617 312.17700195 176.96557617 312.17700195 C176.63557617 280.16700195 176.30557617 248.15700195 175.96557617 215.17700195 C173.32557617 218.80700195 170.68557617 222.43700195 167.96557617 226.17700195 C166.11958669 228.39169443 164.30549579 230.51971091 162.34057617 232.61450195 C161.84187012 233.14817383 161.34316406 233.6818457 160.8293457 234.23168945 C148.97077819 246.67202563 137.28428911 256.52484277 119.71557617 258.55200195 C112.00284383 257.78072872 104.47843739 255.40188776 97.96557617 251.17700195 C97.49120117 252.39387695 97.01682617 253.61075195 96.52807617 254.86450195 C96.26124023 255.54899414 95.9944043 256.23348633 95.71948242 256.9387207 C93.9597713 262.16314804 93.82725921 267.18993258 93.85205078 272.66130066 C93.85182749 273.93966048 93.85182749 273.93966048 93.85159969 275.24384576 C93.85229391 278.09813593 93.86013487 280.95236165 93.86791992 283.80664062 C93.86983911 285.85336776 93.8713029 287.90009536 93.87234497 289.94682312 C93.87550601 294.35298214 93.88177454 298.75912201 93.89041138 303.16527367 C93.90391945 310.12664523 93.90982464 317.0880104 93.91455078 324.0493927 C93.92565454 338.82110431 93.94519931 353.59280067 93.96557617 368.36450195 C93.98757588 384.32077332 94.00815268 400.2770385 94.01899433 416.23332196 C94.02398996 423.15976354 94.03386886 430.08617614 94.04742432 437.01260602 C94.05485887 441.31198793 94.05819449 445.61136578 94.06039047 449.91075325 C94.0622699 451.91110346 94.06588543 453.91145287 94.07132339 455.91179657 C94.07848938 458.63243475 94.0795794 461.35300823 94.07910156 464.07365417 C94.08269652 464.87373514 94.08629148 465.6738161 94.08999538 466.49814194 C94.07966913 471.94881605 94.07966913 471.94881605 92.96557617 474.17700195 C51.71557617 474.17700195 10.46557617 474.17700195 -32.03442383 474.17700195 C-33.15995311 458.41959207 -33.15995311 458.41959207 -33.33154297 451.7902832 C-33.35118197 451.06146596 -33.37082098 450.33264872 -33.39105511 449.5817461 C-33.45380017 447.21773579 -33.51187099 444.85364013 -33.56958008 442.48950195 C-33.61306235 440.79529929 -33.65670642 439.10110076 -33.70050049 437.40690613 C-33.83862828 431.99707797 -33.96860246 426.58707049 -34.09692383 421.17700195 C-34.1188467 420.25880802 -34.14076958 419.34061409 -34.16335678 418.3945961 C-35.24394547 373.01588641 -35.24394547 373.01588641 -35.33297729 354.11962891 C-35.34205681 352.32597668 -35.35590893 350.53234019 -35.37527466 348.73876953 C-35.55366005 330.48024024 -34.34411611 310.79638651 -26.03442383 294.17700195 C-25.80820302 292.47336374 -25.6255391 290.76371495 -25.47192383 289.05200195 C-25.38813477 288.14192383 -25.3043457 287.2318457 -25.21801758 286.29418945 C-25.12713867 285.24618164 -25.12713867 285.24618164 -25.03442383 284.17700195 C-25.86844727 284.1512207 -26.7024707 284.12543945 -27.56176758 284.09887695 C-34.88809436 283.72962337 -40.66201622 282.87024408 -47.03442383 279.17700195 C-47.65961914 278.82766602 -48.28481445 278.47833008 -48.92895508 278.1184082 C-56.80998353 273.15627918 -60.83736814 264.98169438 -63.03442383 256.17700195 C-63.6760203 252.02156228 -64.00754233 247.87112042 -64.28442383 243.67700195 C-64.36450684 242.4964624 -64.44458984 241.31592285 -64.52709961 240.09960938 C-65.97284774 215.85017627 -63.80583262 191.56914143 -57.03442383 168.17700195 C-57.57711914 167.74129883 -58.11981445 167.3055957 -58.67895508 166.85668945 C-59.39438477 166.26114258 -60.10981445 165.6655957 -60.84692383 165.05200195 C-61.55461914 164.47192383 -62.26231445 163.8918457 -62.99145508 163.29418945 C-68.13242205 157.96645696 -68.585631 152.63165396 -68.51269531 145.4855957 C-67.96960094 130.06241418 -57.77882628 116.03608547 -49.72192383 103.36450195 C-40.57304336 88.63171234 -39.15883417 72.65154126 -38.74462891 55.67553711 C-38.31293223 38.89997761 -37.74421122 21.08725772 -24.78442383 8.67700195 C-17.59123172 2.82264425 -9.18459115 0.08438744 0 0 Z " fill="#312114" transform="translate(68.034423828125,17.822998046875)"/>
<path d="M0 0 C0.99902344 0.33644531 1.99804688 0.67289063 3.02734375 1.01953125 C30.96083825 10.9507023 47.6474044 31.43671624 60.5625 57.10546875 C63.31500361 62.91357904 65.34394703 68.79316733 67 75 C80.46058688 73.19724283 94.74941353 56.22441099 103 46 C103.72445312 45.10539062 104.44890625 44.21078125 105.1953125 43.2890625 C107.14157028 40.8681077 109.07603649 38.43868621 111 36 C116.05485927 36.73094706 120.59903179 38.68380904 125.3125 40.5625 C126.14845703 40.89185547 126.98441406 41.22121094 127.84570312 41.56054688 C129.89863546 42.36998877 131.94997286 43.18323457 134 44 C131.45164865 66.73245239 115.18087699 87.94280753 100 104 C99.23042969 104.83402344 98.46085938 105.66804688 97.66796875 106.52734375 C88.04624223 116.61538981 76.98696435 125.75158142 62.5625 126.4375 C49.81536556 125.99427558 39.65135701 118.03745826 31.0625 109.1875 C22.28722142 99.10081254 6 78.95828955 6 65 C5.01 65 4.02 65 3 65 C10.02033416 83.57366554 18.86978771 100.68442198 33.625 114.3125 C36.9743492 117.61523798 36.9743492 117.61523798 37.1875 120.8125 C36.795625 121.864375 36.40375 122.91625 36 124 C31.83916028 137.60601996 31.83916028 137.60601996 32 163 C-4.3 163 -40.6 163 -78 163 C-80.30131149 137.68557364 -80.30131149 137.68557364 -80.8515625 127.87109375 C-80.91532074 126.78208267 -80.97907898 125.69307159 -81.04476929 124.57106018 C-81.17573083 122.3226171 -81.3050303 120.07407655 -81.43261719 117.82543945 C-81.62818381 114.38143173 -81.82932536 110.93778092 -82.03125 107.49414062 C-82.15917059 105.28647665 -82.28678659 103.07879499 -82.4140625 100.87109375 C-82.50308334 99.33998207 -82.50308334 99.33998207 -82.59390259 97.77793884 C-82.64750946 96.82826736 -82.70111633 95.87859589 -82.75634766 94.90014648 C-82.82724106 93.65732155 -82.82724106 93.65732155 -82.89956665 92.38938904 C-83.0032206 89.92337945 -83.01713131 87.46788675 -83 85 C-83.99 85 -84.98 85 -86 85 C-85.9498877 85.73614029 -85.89977539 86.47228058 -85.84814453 87.23072815 C-85.37487665 94.18912761 -84.90387994 101.14767753 -84.43539429 108.10640049 C-84.19449838 111.68340519 -83.95274378 115.26034741 -83.70898438 118.8371582 C-83.47350497 122.29294824 -83.24033656 125.74888734 -83.00872803 129.20493889 C-82.87735717 131.15639162 -82.7436317 133.10768537 -82.60986328 135.05897522 C-82.23247279 140.71734096 -81.88238047 146.32853311 -82 152 C-92.52475112 151.4913037 -100.2940948 150.44881803 -108.17578125 143.078125 C-113.73429522 136.74594206 -115.8754864 129.1893925 -117 121 C-117.1753125 119.84757812 -117.350625 118.69515625 -117.53125 117.5078125 C-120.24470522 95.2231716 -120.36794853 61.73589706 -110 41 C-98.45766813 40.72599806 -98.45766813 40.72599806 -95.046875 43.70703125 C-94.09723081 45.11323514 -93.17893673 46.5411136 -92.29296875 47.98828125 C-90.1836967 51.27007915 -87.66018113 52.94012741 -84 54 C-74.06547056 55.36534763 -67.22381337 53.09622294 -59.01171875 47.69140625 C-57 47 -57 47 -54.7109375 47.86328125 C-53.55464844 48.58064453 -53.55464844 48.58064453 -52.375 49.3125 C-51.59898438 49.78300781 -50.82296875 50.25351563 -50.0234375 50.73828125 C-49.35570313 51.15464844 -48.68796875 51.57101563 -48 52 C-43.84466331 54.07766834 -38.34175723 53.70432162 -33.9609375 52.38671875 C-27.68814273 49.25032137 -24.86604843 43.46358205 -22.40234375 37.171875 C-20.26951831 30.58855382 -20.43082521 23.79698138 -20.3125 16.9375 C-20.27925702 15.58134868 -20.24476115 14.22522747 -20.20898438 12.86914062 C-20.1270363 9.57951063 -20.05771038 6.29012945 -20 3 C-18.26371974 2.14672722 -16.52006865 1.30844183 -14.7734375 0.4765625 C-13.80325684 0.00814941 -12.83307617 -0.46026367 -11.83349609 -0.94287109 C-7.31809656 -2.62748939 -4.36862969 -1.66190246 0 0 Z " fill="#5969FD" transform="translate(125,146)"/>
<path d="M0 0 C0.89874816 0.00092179 1.79749632 0.00184359 2.72347927 0.00279331 C4.26211053 0.00072707 4.26211053 0.00072707 5.83182526 -0.00138092 C7.54083842 0.00401624 7.54083842 0.00401624 9.2843771 0.00952244 C10.49378428 0.0094019 11.70319147 0.00928137 12.94924736 0.00915718 C16.88511301 0.00990679 20.82093197 0.01753721 24.75678921 0.02539158 C27.17829776 0.02686085 29.59980664 0.02788165 32.02131557 0.02844334 C41.02559286 0.03369795 50.02986336 0.047659 59.03413296 0.06054783 C89.19819546 0.09148533 89.19819546 0.09148533 119.97163296 0.12304783 C119.97163296 40.71304783 119.97163296 81.30304783 119.97163296 123.12304783 C79.38163296 123.12304783 38.79163296 123.12304783 -3.02836704 123.12304783 C-3.04899204 103.01367283 -3.06961704 82.90429783 -3.09086704 62.18554783 C-3.09997105 55.82539402 -3.10907505 49.46524021 -3.11845493 42.91235447 C-3.12297153 35.17273045 -3.12297153 35.17273045 -3.12381077 31.55467319 C-3.1253509 29.01638203 -3.12887722 26.47809161 -3.1339426 23.93980503 C-3.14121549 20.10512099 -3.14227462 16.27048183 -3.14189243 12.43579197 C-3.14549054 11.29644986 -3.14908865 10.15710775 -3.15279579 8.98324013 C-3.15141829 7.95748595 -3.1500408 6.93173178 -3.14862156 5.87489414 C-3.14954335 4.97614598 -3.15046515 4.07739782 -3.15141487 3.15141487 C-2.98461505 0.40182345 -2.74959142 0.16679982 0 0 Z " fill="#FDFCFC" transform="translate(248.0283670425415,370.8769521713257)"/>
<path d="M0 0 C1.01804214 -0.00281982 2.03608429 -0.00563965 3.0849762 -0.00854492 C4.77438576 -0.00550858 4.77438576 -0.00550858 6.4979248 -0.00241089 C7.67664658 -0.00416321 8.85536835 -0.00591553 10.06980896 -0.00772095 C13.31146276 -0.01137903 16.55307601 -0.01050609 19.79472923 -0.00734186 C23.18021101 -0.0048178 26.56569 -0.00715593 29.95117188 -0.00872803 C35.63749684 -0.01054959 41.32380884 -0.00814377 47.01013184 -0.00338745 C53.59312686 0.00205515 60.17609091 0.00029248 66.75908518 -0.00521386 C72.40153981 -0.00974537 78.04398509 -0.01039535 83.68644094 -0.00777519 C87.0606242 -0.00621262 90.43479289 -0.00601808 93.80897522 -0.00931168 C97.56859464 -0.01183648 101.32815366 -0.00800003 105.08776855 -0.00241089 C106.2140416 -0.00443512 107.34031464 -0.00645935 108.50071716 -0.00854492 C110.02778038 -0.00431519 110.02778038 -0.00431519 111.58569336 0 C112.47576836 0.00037703 113.36584335 0.00075405 114.28289032 0.0011425 C116.29284668 0.12698364 116.29284668 0.12698364 117.29284668 1.12698364 C117.39095802 2.70621093 117.4191656 4.28982898 117.41983032 5.87210083 C117.42406006 7.41178528 117.42406006 7.41178528 117.42837524 8.98257446 C117.4253389 10.68601013 117.4253389 10.68601013 117.42224121 12.42385864 C117.42486969 14.20657166 117.42486969 14.20657166 117.42755127 16.02529907 C117.43120938 19.2938114 117.4303364 22.56228353 117.42717218 25.83079529 C117.42464815 29.24430428 117.42698624 32.65781049 117.42855835 36.07131958 C117.43037992 41.80472296 117.42797407 47.53811347 117.42321777 53.27151489 C117.41777517 59.9090414 117.41953784 66.5465372 117.42504418 73.18406296 C117.42957567 78.87322631 117.43022568 84.56238038 117.42760551 90.25154495 C117.42604293 93.65367385 117.42584843 97.05578828 117.429142 100.45791626 C117.43166677 104.24866852 117.42783039 108.03936087 117.42224121 111.83010864 C117.42426544 112.96573242 117.42628967 114.1013562 117.42837524 115.27139282 C117.42555542 116.29784912 117.4227356 117.32430542 117.41983032 118.38186646 C117.41926478 119.72804047 117.41926478 119.72804047 117.41868782 121.10140991 C117.29284668 123.12698364 117.29284668 123.12698364 116.29284668 124.12698364 C113.27575113 124.2542821 110.28108214 124.31627368 107.26257324 124.33572388 C106.31460876 124.34550766 105.36664429 124.35529144 104.38995361 124.3653717 C101.23780742 124.39540305 98.08570391 124.4167332 94.93347168 124.43557739 C93.32242176 124.44543513 93.32242176 124.44543513 91.67882538 124.45549202 C85.99321307 124.48812058 80.30761977 124.51256209 74.62194824 124.53201294 C69.9094319 124.5498301 65.19751348 124.58465243 60.48522949 124.634552 C54.80411267 124.69464968 49.12355064 124.72547493 43.44213104 124.73518562 C41.2747325 124.74376019 39.10734956 124.76262719 36.94013214 124.79192924 C33.90632697 124.83073703 30.87469165 124.83189199 27.84069824 124.82400513 C26.49546082 124.85400604 26.49546082 124.85400604 25.12304688 124.88461304 C19.13806642 124.81471879 19.13806642 124.81471879 16.59374237 122.74446297 C15.19610596 121.0834198 15.19610596 121.0834198 13.29284668 118.12698364 C14.28864746 117.43862427 14.28864746 117.43862427 15.30456543 116.73635864 C17.12064699 115.4743808 18.93036792 114.20320971 20.73425293 112.92385864 C22.59877353 111.61442433 24.498825 110.35515752 26.41784668 109.12698364 C28.65431256 107.13664203 28.65431256 107.13664203 28.73034668 103.50198364 C28.63332122 100.06056608 28.63332122 100.06056608 26.29284668 98.12698364 C18.811876 96.67938039 13.55263792 101.15190525 7.48034668 105.06448364 C5.41139901 106.36536469 3.34239167 107.66615084 1.27331543 108.96682739 C0.36476807 109.54811401 -0.5437793 110.12940063 -1.4798584 110.728302 C-3.70715332 112.12698364 -3.70715332 112.12698364 -5.70715332 113.12698364 C-5.73048335 98.54127169 -5.74806659 83.95556262 -5.75896549 69.36983585 C-5.76412823 62.59787943 -5.7711705 55.82593459 -5.78259277 49.0539856 C-5.79360046 42.52473938 -5.79942957 35.99550071 -5.80203056 29.46624565 C-5.80388531 26.96904752 -5.80750686 24.47185009 -5.81288338 21.97465706 C-5.82009016 18.49034295 -5.82114442 15.00607933 -5.82067871 11.52175903 C-5.82427399 10.47807159 -5.82786926 9.43438416 -5.83157349 8.35906982 C-5.83019882 7.41530991 -5.82882416 6.47154999 -5.82740784 5.49919128 C-5.82832963 4.67418656 -5.82925142 3.84918184 -5.83020115 2.99917698 C-5.58234027 -0.77206779 -3.2251059 0.00136612 0 0 Z " fill="#FE9F0C" transform="translate(250.7071533203125,42.873016357421875)"/>
<path d="M0 0 C36.3 0 72.6 0 110 0 C110 38.28 110 76.56 110 116 C71.72 116 33.44 116 -6 116 C-6.12375 99.0875 -6.2475 82.175 -6.375 64.75 C-6.42962402 59.4297168 -6.48424805 54.10943359 -6.54052734 48.62792969 C-6.56762695 42.08056641 -6.56762695 42.08056641 -6.57266235 39.00567627 C-6.58181529 36.87946009 -6.6027914 34.75327309 -6.63345337 32.6272583 C-6.67780339 29.38735714 -6.68342231 26.14934184 -6.68115234 22.90917969 C-6.70274099 21.97804729 -6.72432964 21.0469149 -6.74657249 20.08756638 C-6.66625681 11.44115603 -4.37444858 8.74889715 0 0 Z " fill="#FCFCFC" transform="translate(255,211)"/>
<path d="M0 0 C1.81214912 5.22532318 3.57599776 10.46234321 5.26904297 15.72753906 C5.85802929 17.55862948 6.46014571 19.38549367 7.06640625 21.2109375 C9.17998431 28.66461859 9.33650452 36.11409205 9.4375 43.8125 C9.45989746 44.88701416 9.48229492 45.96152832 9.50537109 47.06860352 C9.48625995 53.53370233 8.84892977 58.65847509 5 64 C-1.39160589 69.81055081 -9.8706469 68.35132859 -18 68 C-18 68.99 -18 69.98 -18 71 C-16.68 71 -15.36 71 -14 71 C-13.66324721 73.89547264 -13.33048266 76.79131072 -13 79.6875 C-12.90460938 80.50412109 -12.80921875 81.32074219 -12.7109375 82.16210938 C-12.62070313 82.95810547 -12.53046875 83.75410156 -12.4375 84.57421875 C-12.31181641 85.66609497 -12.31181641 85.66609497 -12.18359375 86.7800293 C-11.98517392 89.17927338 -12 91.59256514 -12 94 C-15.3 95.32 -18.6 96.64 -22 98 C-23.78876994 96.21123006 -23.51156333 93.43871092 -23.8046875 91.01171875 C-24.97536472 82.4488339 -27.00620856 74.18256327 -29.125 65.8125 C-29.68490531 63.5842119 -30.24275114 61.35545744 -30.79660034 59.12565613 C-31.29237413 57.13188629 -31.79467491 55.13974278 -32.29736328 53.14770508 C-33 50 -33 50 -33 47 C-31.68 47 -30.36 47 -29 47 C-29.33 46.34 -29.66 45.68 -30 45 C-31.42015245 44.52757606 -32.86235114 44.12025077 -34.3125 43.75 C-37.83064855 42.62778356 -38.9757252 42.02543074 -41.625 39.25 C-43.32960721 35.22092842 -43.23716346 33.17542667 -42 29 C-39.65081114 25.56657012 -38.37676065 25.07535213 -34.25 24.25 C-32.64125 24.12625 -32.64125 24.12625 -31 24 C-30.85304688 23.3709375 -30.70609375 22.741875 -30.5546875 22.09375 C-28.71024756 15.05519758 -26.21321503 9.16698043 -20.25390625 4.6875 C-14.28172564 1.31030016 -6.82130922 0 0 0 Z " fill="#FCFBFB" transform="translate(126,48)"/>
<path d="M0 0 C0.89874816 0.00092179 1.79749632 0.00184359 2.72347927 0.00279331 C4.26211053 0.00072707 4.26211053 0.00072707 5.83182526 -0.00138092 C7.54083842 0.00401624 7.54083842 0.00401624 9.2843771 0.00952244 C10.49378428 0.0094019 11.70319147 0.00928137 12.94924736 0.00915718 C16.88511301 0.00990679 20.82093197 0.01753721 24.75678921 0.02539158 C27.17829776 0.02686085 29.59980664 0.02788165 32.02131557 0.02844334 C41.02559286 0.03369795 50.02986336 0.047659 59.03413296 0.06054783 C89.19819546 0.09148533 89.19819546 0.09148533 119.97163296 0.12304783 C119.97163296 40.71304783 119.97163296 81.30304783 119.97163296 123.12304783 C79.38163296 123.12304783 38.79163296 123.12304783 -3.02836704 123.12304783 C-3.04899204 103.01367283 -3.06961704 82.90429783 -3.09086704 62.18554783 C-3.09997105 55.82539402 -3.10907505 49.46524021 -3.11845493 42.91235447 C-3.12297153 35.17273045 -3.12297153 35.17273045 -3.12381077 31.55467319 C-3.1253509 29.01638203 -3.12887722 26.47809161 -3.1339426 23.93980503 C-3.14121549 20.10512099 -3.14227462 16.27048183 -3.14189243 12.43579197 C-3.14549054 11.29644986 -3.14908865 10.15710775 -3.15279579 8.98324013 C-3.15141829 7.95748595 -3.1500408 6.93173178 -3.14862156 5.87489414 C-3.14954335 4.97614598 -3.15046515 4.07739782 -3.15141487 3.15141487 C-2.98461505 0.40182345 -2.74959142 0.16679982 0 0 Z M0.97163296 4.12304783 C0.97163296 42.40304783 0.97163296 80.68304783 0.97163296 120.12304783 C39.25163296 120.12304783 77.53163296 120.12304783 116.97163296 120.12304783 C116.97163296 81.84304783 116.97163296 43.56304783 116.97163296 4.12304783 C78.69163296 4.12304783 40.41163296 4.12304783 0.97163296 4.12304783 Z " fill="#322315" transform="translate(248.0283670425415,370.8769521713257)"/>
<path d="M0 0 C3.96437558 3.96437558 5.31346169 7.59634956 5.5625 13.125 C5.32199709 20.41661109 1.24020278 24.29397516 -3.875 29.125 C-2.4828125 30.176875 -2.4828125 30.176875 -1.0625 31.25 C2.62006348 34.36668493 4.76936686 37.37872184 5.40625 42.296875 C5.6082308 47.31273149 5.03603981 50.89929705 2.125 55.125 C-2.88961371 60.4055402 -7.71493761 63.09599022 -15.1171875 63.42578125 C-16.66139549 63.44024998 -18.20573768 63.44394517 -19.75 63.4375 C-20.89662109 63.46166992 -20.89662109 63.46166992 -22.06640625 63.48632812 C-27.63679105 63.4910568 -31.76209313 62.33205206 -36.875 60.125 C-36.875 58.475 -36.875 56.825 -36.875 55.125 C-29.125 56 -29.125 56 -26.875 57.125 C-18.6256054 57.85641435 -11.0828932 57.51552225 -3.875 53.125 C-1.40972673 50.36969458 -0.97683506 48.80874969 -0.4375 45.1875 C-1.00694397 41.20139219 -2.28346049 39.19392837 -4.875 36.125 C-9.82525444 33.00872536 -14.07219714 32.60590941 -19.75 32.4375 C-20.925625 32.38625977 -20.925625 32.38625977 -22.125 32.33398438 C-24.04118748 32.25219588 -25.95806715 32.1869054 -27.875 32.125 C-28.535 30.805 -29.195 29.485 -29.875 28.125 C-27.18885578 25.43885578 -25.68738404 25.86592983 -21.9375 25.75 C-15.48839513 25.34872236 -9.62896958 24.16443748 -3.875 21.125 C-1.04061476 16.87342215 -1.237248 13.11540941 -1.875 8.125 C-3.72319135 4.71295444 -4.95927814 3.50914329 -8.51953125 2.015625 C-12.37574209 0.99209057 -15.98041767 0.83066294 -19.9375 0.875 C-20.63166016 0.86726563 -21.32582031 0.85953125 -22.04101562 0.8515625 C-26.13345308 0.86710832 -29.1590163 1.46294184 -32.875 3.125 C-35.1875 2.75 -35.1875 2.75 -36.875 2.125 C-36.875 0.805 -36.875 -0.515 -36.875 -1.875 C-25.53641345 -9.4340577 -10.79421758 -7.03970712 0 0 Z " fill="#3C2C1F" transform="translate(322.875,403.875)"/>
<path d="M0 0 C3.94078439 2.59460041 6.94105291 6.13601207 9.046875 10.34765625 C9.77465105 18.66339239 9.26167993 25.12773361 5.046875 32.34765625 C4.42232422 33.55228516 4.42232422 33.55228516 3.78515625 34.78125 C-1.30666072 43.77545689 -10.60223889 55.67221319 -19.953125 60.34765625 C-8.073125 60.67765625 3.806875 61.00765625 16.046875 61.34765625 C16.376875 62.66765625 16.706875 63.98765625 17.046875 65.34765625 C16.046875 66.34765625 16.046875 66.34765625 14.14231873 66.46791077 C13.30958939 66.46569016 12.47686005 66.46346954 11.61889648 66.46118164 C10.67799667 66.46110611 9.73709686 66.46103058 8.76768494 66.46095276 C7.74477859 66.45579147 6.72187225 66.45063019 5.66796875 66.4453125 C4.62616959 66.44389755 3.58437042 66.4424826 2.51100159 66.44102478 C-0.83123594 66.43540705 -4.17340757 66.42285155 -7.515625 66.41015625 C-9.77538966 66.40514353 -12.03515537 66.40058023 -14.29492188 66.39648438 C-19.84767891 66.38543186 -25.40039725 66.36867649 -30.953125 66.34765625 C-31.283125 65.02765625 -31.613125 63.70765625 -31.953125 62.34765625 C-30.53088467 61.14570277 -29.10862589 59.9437711 -27.6862793 58.74194336 C-26.48222964 57.72320767 -25.27927853 56.70317226 -24.07739258 55.68188477 C-21.67407313 53.64051692 -19.27361502 51.60439917 -16.8125 49.6328125 C-7.82673824 42.38961669 1.11544676 31.15076454 3.62109375 19.73046875 C3.87247233 14.58154203 2.56144619 11.2321823 -0.953125 7.34765625 C-6.13440707 3.55647425 -11.7792885 3.56128683 -17.953125 4.34765625 C-20.63426399 5.19073395 -23.11857225 6.18738833 -25.6640625 7.375 C-28.08345117 8.40303375 -30.36678403 8.91355308 -32.953125 9.34765625 C-33.283125 8.02765625 -33.613125 6.70765625 -33.953125 5.34765625 C-23.46638376 -1.88162313 -12.12582611 -5.99841398 0 0 Z " fill="#38281B" transform="translate(317.953125,236.65234375)"/>
<path d="M0 0 C1 1 1 1 1.5234375 3.23046875 C0.90631595 6.49568649 0.38632483 6.79183204 -2.2109375 8.67578125 C-3.5874335 9.57262951 -4.97612839 10.45096867 -6.375 11.3125 C-7.07367188 11.76689453 -7.77234375 12.22128906 -8.4921875 12.68945312 C-13.66958412 16 -13.66958412 16 -16 16 C-14.94996932 19.57010431 -13.65233311 21.40498761 -10.875 23.75 C-8.33776487 26.19303085 -7.4365193 27.90894489 -7.125 31.4375 C-7.40671162 35.38817017 -8.70583504 37.35844536 -11.5 40.125 C-14.60931663 42.46242334 -15.75559536 42.98370636 -19.75 43.25 C-25.39085172 41.95260411 -30.74469757 39.37364493 -36 37 C-35.40615522 34.43471112 -34.80038512 31.87324546 -34.1875 29.3125 C-34.02185547 28.59126953 -33.85621094 27.87003906 -33.68554688 27.12695312 C-30.79399281 15.17883351 -22.61746217 10.94335809 -12.8125 4.625 C-12.12325439 4.17165283 -11.43400879 3.71830566 -10.72387695 3.2512207 C-4.39968005 -0.74570848 -4.39968005 -0.74570848 0 0 Z " fill="#F9F9F9" transform="translate(276,143)"/>
<path d="M0 0 C1.32 0.33 2.64 0.66 4 1 C4 21.79 4 42.58 4 64 C10.6 64 17.2 64 24 64 C24.33 65.32 24.66 66.64 25 68 C24 69 24 69 22.17137146 69.12025452 C20.97557213 69.1169236 20.97557213 69.1169236 19.75561523 69.11352539 C18.85475693 69.11344986 17.95389862 69.11337433 17.02574158 69.11329651 C16.04658279 69.10813522 15.06742401 69.10297394 14.05859375 69.09765625 C13.06118668 69.0962413 12.0637796 69.09482635 11.03614807 69.09336853 C7.83656876 69.08775114 4.63705831 69.07519571 1.4375 69.0625 C-0.72591045 69.05748724 -2.88932199 69.05292395 -5.05273438 69.04882812 C-10.36851325 69.03777607 -15.68425171 69.02102104 -21 69 C-21.5625 67.0625 -21.5625 67.0625 -22 65 C-21.505 64.505 -21.505 64.505 -21 64 C-14.4 64 -7.8 64 -1 64 C-1.33 46.18 -1.66 28.36 -2 10 C-6.29 14.29 -10.58 18.58 -15 23 C-21 28 -21 28 -23.375 27.8125 C-23.91125 27.544375 -24.4475 27.27625 -25 27 C-24.4241262 23.34670534 -23.03613728 21.67123921 -20.4296875 19.1015625 C-19.33140625 18.01101562 -19.33140625 18.01101562 -18.2109375 16.8984375 C-17.44007813 16.14820312 -16.66921875 15.39796875 -15.875 14.625 C-14.75351562 13.51125 -14.75351562 13.51125 -13.609375 12.375 C-11.42888109 10.22489625 -9.22236191 8.10673012 -7 6 C-6.34805664 5.36932617 -5.69611328 4.73865234 -5.02441406 4.08886719 C-3.1953125 2.3984375 -3.1953125 2.3984375 0 0 Z " fill="#FFFDFB" transform="translate(311,69)"/>
<path d="M0 0 C37.29 0 74.58 0 113 0 C112.67 1.65 112.34 3.3 112 5 C97.56194262 5.02333991 83.12388817 5.04091812 68.68581581 5.05181217 C61.98226924 5.0569728 55.27873437 5.06401108 48.57519531 5.07543945 C42.11078135 5.08627293 35.64637958 5.09227782 29.18195724 5.09487724 C26.71070539 5.09673066 24.23945424 5.10034967 21.76820755 5.10573006 C18.31762479 5.11294657 14.86709295 5.11399068 11.41650391 5.11352539 C10.38576248 5.11712067 9.35502106 5.12071594 8.29304504 5.12442017 C7.35632462 5.1230455 6.41960419 5.12167084 5.45449829 5.12025452 C4.63778971 5.12117631 3.82108112 5.1220981 2.97962379 5.12304783 C1 5 1 5 -1 4 C-0.67 2.68 -0.34 1.36 0 0 Z " fill="#302012" transform="translate(399,244)"/>
<path d="M0 0 C1.23750708 0.00138269 1.23750708 0.00138269 2.50001431 0.00279331 C3.44377422 0.00141865 4.38753414 0.00004398 5.35989285 -0.00137234 C6.40358028 0.00222294 7.44726772 0.00581821 8.52258205 0.00952244 C9.61512798 0.00937641 10.70767391 0.00923038 11.83332729 0.00907993 C15.46405899 0.00977961 19.09474012 0.01757454 22.72546291 0.02539158 C25.2351011 0.02725557 27.74473964 0.02867956 30.25437832 0.0296793 C36.1971526 0.03311435 42.1399105 0.0410051 48.08267635 0.05102879 C55.50982591 0.0632853 62.93697771 0.06866991 70.36413479 0.0742197 C83.6187014 0.08495972 96.87325287 0.101847 110.12780666 0.12304783 C110.69030666 2.06054783 110.69030666 2.06054783 111.12780666 4.12304783 C110.12780666 5.12304783 110.12780666 5.12304783 108.25561333 5.24609566 C107.43060861 5.24517386 106.60560389 5.24425207 105.75559902 5.24330235 C104.8118391 5.24467701 103.86807919 5.24605167 102.89572048 5.24746799 C101.85203304 5.24387272 100.8083456 5.24027744 99.73303127 5.23657322 C98.64048534 5.23671925 97.54793941 5.23686527 96.42228603 5.23701572 C92.79155434 5.23631605 89.16087321 5.22852112 85.53015041 5.22070408 C83.02051223 5.21884009 80.51087368 5.2174161 78.00123501 5.21641636 C72.05846073 5.21298131 66.11570283 5.20509056 60.17293698 5.19506687 C52.74578741 5.18281036 45.31863562 5.17742575 37.89147854 5.17187595 C24.63691193 5.16113594 11.38236045 5.14424865 -1.87219334 5.12304783 C-2.43469334 3.18554783 -2.43469334 3.18554783 -2.87219334 1.12304783 C-1.87219334 0.12304783 -1.87219334 0.12304783 0 0 Z " fill="#312013" transform="translate(400.8721933364868,79.87695217132568)"/>
<path d="M0 0 C37.29 0 74.58 0 113 0 C113 1.32 113 2.64 113 4 C75.38 4 37.76 4 -1 4 C-0.67 2.68 -0.34 1.36 0 0 Z " fill="#302112" transform="translate(399,408)"/>
<path d="M0 0 C26.07 0 52.14 0 79 0 C79.495 1.98 79.495 1.98 80 4 C53.27 4 26.54 4 -1 4 C-0.67 2.68 -0.34 1.36 0 0 Z " fill="#302012" transform="translate(399,453)"/>
<path d="M0 0 C26.07 0 52.14 0 79 0 C79.495 1.98 79.495 1.98 80 4 C53.27 4 26.54 4 -1 4 C-0.67 2.68 -0.34 1.36 0 0 Z " fill="#302112" transform="translate(399,289)"/>
<path d="M0 0 C26.07 0 52.14 0 79 0 C79.495 1.98 79.495 1.98 80 4 C53.27 4 26.54 4 -1 4 C-0.67 2.68 -0.34 1.36 0 0 Z " fill="#302113" transform="translate(399,125)"/>
<path d="M0 0 C6.34507042 -0.35915493 6.34507042 -0.35915493 8.9375 1.0625 C10.71964502 4.31229387 10.61636779 6.36343006 10 10 C6.17160854 14.8957006 0.53187452 17.47668882 -5 20 C-3.33919004 14.59780496 -0.64978153 13.26297019 4.1015625 10.625 C6.29988029 9.12157719 6.29988029 9.12157719 6.2734375 6.3125 C6.13808594 5.1678125 6.13808594 5.1678125 6 4 C2.95613276 3.91773332 0.92824652 4.02391783 -2 5 C-1.34 3.35 -0.68 1.7 0 0 Z " fill="#3C2A18" transform="translate(270,140)"/>
</svg>
